<svg preserveAspectRatio="none" overflow="visible" style="display: block;" width="13.3333" height="15" viewBox="0 0 13.3333 15" fill="none" xmlns="http://www.w3.org/2000/svg">
<g id="Container">
<path id="Icon" d="M0 9.16667C0 7.70833 0.347222 6.40972 1.04167 5.27083C1.73611 4.13194 2.5 3.17361 3.33333 2.39583C4.16667 1.61806 4.93056 1.02431 5.625 0.614583C6.31944 0.204861 6.66667 0 6.66667 0V2.75C6.66667 3.26389 6.84028 3.67014 7.1875 3.96875C7.53472 4.26736 7.92361 4.41667 8.35417 4.41667C8.59028 4.41667 8.81597 4.36806 9.03125 4.27083C9.24653 4.17361 9.44444 4.01389 9.625 3.79167L10 3.33333C11 3.91667 11.8056 4.72569 12.4167 5.76042C13.0278 6.79514 13.3333 7.93056 13.3333 9.16667C13.3333 10.3889 13.0347 11.5035 12.4375 12.5104C11.8403 13.5174 11.0556 14.3125 10.0833 14.8958C10.3194 14.5625 10.5035 14.1979 10.6354 13.8021C10.7674 13.4062 10.8333 12.9861 10.8333 12.5417C10.8333 11.9861 10.7292 11.4618 10.5208 10.9688C10.3125 10.4757 10.0139 10.0347 9.625 9.64583L6.66667 6.75L3.72917 9.64583C3.32639 10.0486 3.02083 10.4931 2.8125 10.9792C2.60417 11.4653 2.5 11.9861 2.5 12.5417C2.5 12.9861 2.56597 13.4062 2.69792 13.8021C2.82986 14.1979 3.01389 14.5625 3.25 14.8958C2.27778 14.3125 1.49306 13.5174 0.895833 12.5104C0.298611 11.5035 0 10.3889 0 9.16667V9.16667M6.66667 9.08333L8.4375 10.8125C8.67361 11.0486 8.85417 11.3125 8.97917 11.6042C9.10417 11.8958 9.16667 12.2083 9.16667 12.5417C9.16667 13.2222 8.92361 13.8021 8.4375 14.2812C7.95139 14.7604 7.36111 15 6.66667 15C5.97222 15 5.38194 14.7604 4.89583 14.2812C4.40972 13.8021 4.16667 13.2222 4.16667 12.5417C4.16667 12.2222 4.22917 11.9132 4.35417 11.6146C4.47917 11.316 4.65972 11.0486 4.89583 10.8125L6.66667 9.08333V9.08333" fill="#F08C4A"/>
</g>
</svg>
